<svg width="12" height="12" viewBox="0 0 12 12" fill="none" xmlns="http://www.w3.org/2000/svg">
<path d="M9.34375 6.65625H2.65625V5.34375H9.34375V6.65625ZM10.6562 0H1.34375C0.947917 0 0.625 0.125 0.375 0.375C0.125 0.625 0 0.947917 0 1.34375V10.6562C0 11.0312 0.125 11.3542 0.375 11.625C0.645833 11.875 0.96875 12 1.34375 12H10.6562C11.0312 12 11.3438 11.875 11.5938 11.625C11.8646 11.3542 12 11.0312 12 10.6562V1.34375C12 0.947917 11.8646 0.625 11.5938 0.375C11.3438 0.125 11.0312 0 10.6562 0Z" fill="#2EADC2"/>
</svg>
